{
    "asset" : {
        "generator" : "Khronos glTF Blender I/O v3.3.27",
        "version" : "2.0"
    },
    "extensionsUsed" : [
        "KHR_lights_punctual"
    ],
    "extensionsRequired" : [
        "KHR_lights_punctual"
    ],
    "extensions" : {
        "KHR_lights_punctual" : {
            "lights" : [
                {
                    "color" : [
                        1,
                        1,
                        1
                    ],
                    "intensity" : 400,
                    "type" : "point",
                    "name" : "Point"
                }
            ]
        }
    },
    "scene" : 0,
    "scenes" : [
        {
            "name" : "Scene",
            "nodes" : [
                35,
                36
            ]
        }
    ],
    "nodes" : [
        {
            "mesh" : 0,
            "name" : "defaultMaterial.007"
        },
        {
            "children" : [
                0
            ],
            "name" : "artic1_lp"
        },
        {
            "mesh" : 1,
            "name" : "defaultMaterial.006"
        },
        {
            "children" : [
                2
            ],
            "name" : "artic2_lp"
        },
        {
            "mesh" : 2,
            "name" : "defaultMaterial.005"
        },
        {
            "children" : [
                4
            ],
            "name" : "artic4_lp"
        },
        {
            "mesh" : 3,
            "name" : "defaultMaterial.012"
        },
        {
            "children" : [
                6
            ],
            "name" : "artic5_lp"
        },
        {
            "mesh" : 4,
            "name" : "defaultMaterial.008"
        },
        {
            "children" : [
                8
            ],
            "name" : "artic6_lp"
        },
        {
            "mesh" : 5,
            "name" : "defaultMaterial.010"
        },
        {
            "children" : [
                10
            ],
            "name" : "attachmicro_lp"
        },
        {
            "mesh" : 6,
            "name" : "defaultMaterial.009"
        },
        {
            "children" : [
                12
            ],
            "name" : "boulon_lp"
        },
        {
            "mesh" : 7,
            "name" : "defaultMaterial.002"
        },
        {
            "children" : [
                14
            ],
            "name" : "corp_lp"
        },
        {
            "mesh" : 8,
            "name" : "defaultMaterial.013"
        },
        {
            "children" : [
                16
            ],
            "name" : "cylindre_lp"
        },
        {
            "mesh" : 9,
            "name" : "defaultMaterial.011"
        },
        {
            "children" : [
                18
            ],
            "name" : "micro_lp"
        },
        {
            "mesh" : 10,
            "name" : "defaultMaterial.014"
        },
        {
            "children" : [
                20
            ],
            "name" : "palque_lp"
        },
        {
            "mesh" : 11,
            "name" : "defaultMaterial.003"
        },
        {
            "children" : [
                22
            ],
            "name" : "petittendeur_lp"
        },
        {
            "mesh" : 12,
            "name" : "defaultMaterial.016"
        },
        {
            "children" : [
                24
            ],
            "name" : "remonte_lp"
        },
        {
            "mesh" : 13,
            "name" : "defaultMaterial.004"
        },
        {
            "children" : [
                26
            ],
            "name" : "rotate_lp"
        },
        {
            "mesh" : 14,
            "name" : "defaultMaterial.001"
        },
        {
            "children" : [
                28
            ],
            "name" : "Shape1_lp"
        },
        {
            "mesh" : 15,
            "name" : "defaultMaterial"
        },
        {
            "children" : [
                30
            ],
            "name" : "Shape2_lp"
        },
        {
            "mesh" : 16,
            "name" : "defaultMaterial.015"
        },
        {
            "children" : [
                32
            ],
            "name" : "tendeur_lp"
        },
        {
            "children" : [
                1,
                3,
                5,
                7,
                9,
                11,
                13,
                15,
                17,
                19,
                21,
                23,
                25,
                27,
                29,
                31,
                33
            ],
            "name" : "Collada visual scene group",
            "rotation" : [
                0.7071068286895752,
                0,
                0,
                0.7071067094802856
            ]
        },
        {
            "children" : [
                34
            ],
            "name" : "Sketchfab_model",
            "rotation" : [
                -0.7071068286895752,
                0,
                0,
                0.7071067094802856
            ]
        },
        {
            "extensions" : {
                "KHR_lights_punctual" : {
                    "light" : 0
                }
            },
            "name" : "Point",
            "rotation" : [
                -0.7071068286895752,
                0,
                0,
                0.7071068286895752
            ],
            "scale" : [
                1.9080768823623657,
                1.9080767631530762,
                1.9080767631530762
            ],
            "translation" : [
                -0.4364347755908966,
                0.2299984097480774,
                1.09294855594635
            ]
        }
    ],
    "materials" : [
        {
            "doubleSided" : true,
            "name" : "01___Default",
            "normalTexture" : {
                "index" : 0
            },
            "occlusionTexture" : {
                "index" : 1
            },
            "pbrMetallicRoughness" : {
                "baseColorTexture" : {
                    "index" : 2
                },
                "metallicRoughnessTexture" : {
                    "index" : 1
                }
            }
        }
    ],
    "meshes" : [
        {
            "name" : "defaultMaterial.007",
            "primitives" : [
                {
                    "attributes" : {
                        "POSITION" : 0,
                        "NORMAL" : 1,
                        "TANGENT" : 2,
                        "TEXCOORD_0" : 3
                    },
                    "indices" : 4,
                    "material" : 0
                }
            ]
        },
        {
            "name" : "defaultMaterial.006",
            "primitives" : [
                {
                    "attributes" : {
                        "POSITION" : 5,
                        "NORMAL" : 6,
                        "TANGENT" : 7,
                        "TEXCOORD_0" : 8
                    },
                    "indices" : 9,
                    "material" : 0
                }
            ]
        },
        {
            "name" : "defaultMaterial.005",
            "primitives" : [
                {
                    "attributes" : {
                        "POSITION" : 10,
                        "NORMAL" : 11,
                        "TANGENT" : 12,
                        "TEXCOORD_0" : 13
                    },
                    "indices" : 14,
                    "material" : 0
                }
            ]
        },
        {
            "name" : "defaultMaterial.012",
            "primitives" : [
                {
                    "attributes" : {
                        "POSITION" : 15,
                        "NORMAL" : 16,
                        "TANGENT" : 17,
                        "TEXCOORD_0" : 18
                    },
                    "indices" : 19,
                    "material" : 0
                }
            ]
        },
        {
            "name" : "defaultMaterial.008",
            "primitives" : [
                {
                    "attributes" : {
                        "POSITION" : 20,
                        "NORMAL" : 21,
                        "TANGENT" : 22,
                        "TEXCOORD_0" : 23
                    },
                    "indices" : 24,
                    "material" : 0
                }
            ]
        },
        {
            "name" : "defaultMaterial.010",
            "primitives" : [
                {
                    "attributes" : {
                        "POSITION" : 25,
                        "NORMAL" : 26,
                        "TANGENT" : 27,
                        "TEXCOORD_0" : 28
                    },
                    "indices" : 29,
                    "material" : 0
                }
            ]
        },
        {
            "name" : "defaultMaterial.009",
            "primitives" : [
                {
                    "attributes" : {
                        "POSITION" : 30,
                        "NORMAL" : 31,
                        "TANGENT" : 32,
                        "TEXCOORD_0" : 33
                    },
                    "indices" : 34,
                    "material" : 0
                }
            ]
        },
        {
            "name" : "defaultMaterial.002",
            "primitives" : [
                {
                    "attributes" : {
                        "POSITION" : 35,
                        "NORMAL" : 36,
                        "TANGENT" : 37,
                        "TEXCOORD_0" : 38
                    },
                    "indices" : 39,
                    "material" : 0
                }
            ]
        },
        {
            "name" : "defaultMaterial.013",
            "primitives" : [
                {
                    "attributes" : {
                        "POSITION" : 40,
                        "NORMAL" : 41,
                        "TANGENT" : 42,
                        "TEXCOORD_0" : 43
                    },
                    "indices" : 44,
                    "material" : 0
                }
            ]
        },
        {
            "name" : "defaultMaterial.011",
            "primitives" : [
                {
                    "attributes" : {
                        "POSITION" : 45,
                        "NORMAL" : 46,
                        "TANGENT" : 47,
                        "TEXCOORD_0" : 48
                    },
                    "indices" : 49,
                    "material" : 0
                }
            ]
        },
        {
            "name" : "defaultMaterial.014",
            "primitives" : [
                {
                    "attributes" : {
                        "POSITION" : 50,
                        "NORMAL" : 51,
                        "TANGENT" : 52,
                        "TEXCOORD_0" : 53
                    },
                    "indices" : 54,
                    "material" : 0
                }
            ]
        },
        {
            "name" : "defaultMaterial.003",
            "primitives" : [
                {
                    "attributes" : {
                        "POSITION" : 55,
                        "NORMAL" : 56,
                        "TANGENT" : 57,
                        "TEXCOORD_0" : 58
                    },
                    "indices" : 59,
                    "material" : 0
                }
            ]
        },
        {
            "name" : "defaultMaterial.016",
            "primitives" : [
                {
                    "attributes" : {
                        "POSITION" : 60,
                        "NORMAL" : 61,
                        "TANGENT" : 62,
                        "TEXCOORD_0" : 63
                    },
                    "indices" : 64,
                    "material" : 0
                }
            ]
        },
        {
            "name" : "defaultMaterial.004",
            "primitives" : [
                {
                    "attributes" : {
                        "POSITION" : 65,
                        "NORMAL" : 66,
                        "TANGENT" : 67,
                        "TEXCOORD_0" : 68
                    },
                    "indices" : 69,
                    "material" : 0
                }
            ]
        },
        {
            "name" : "defaultMaterial.001",
            "primitives" : [
                {
                    "attributes" : {
                        "POSITION" : 70,
                        "NORMAL" : 71,
                        "TANGENT" : 72,
                        "TEXCOORD_0" : 73
                    },
                    "indices" : 74,
                    "material" : 0
                }
            ]
        },
        {
            "name" : "defaultMaterial",
            "primitives" : [
                {
                    "attributes" : {
                        "POSITION" : 75,
                        "NORMAL" : 76,
                        "TANGENT" : 77,
                        "TEXCOORD_0" : 78
                    },
                    "indices" : 79,
                    "material" : 0
                }
            ]
        },
        {
            "name" : "defaultMaterial.015",
            "primitives" : [
                {
                    "attributes" : {
                        "POSITION" : 80,
                        "NORMAL" : 81,
                        "TANGENT" : 82,
                        "TEXCOORD_0" : 83
                    },
                    "indices" : 84,
                    "material" : 0
                }
            ]
        }
    ],
    "textures" : [
        {
            "sampler" : 0,
            "source" : 0
        },
        {
            "sampler" : 0,
            "source" : 1
        },
        {
            "sampler" : 0,
            "source" : 2
        }
    ],
    "images" : [
        {
            "mimeType" : "image/jpeg",
            "name" : "01___Default_normal",
            "uri" : "01___Default_normal.jpg"
        },
        {
            "mimeType" : "image/png",
            "name" : "01___Default_metallicRoughness",
            "uri" : "01___Default_metallicRoughness.png"
        },
        {
            "mimeType" : "image/jpeg",
            "name" : "01___Default_baseColor",
            "uri" : "01___Default_baseColor.jpg"
        }
    ],
    "accessors" : [
        {
            "bufferView" : 0,
            "componentType" : 5126,
            "count" : 298,
            "max" : [
                0.3166370093822479,
                -0.2240840047597885,
                0.0803631991147995
            ],
            "min" : [
                0.08175420016050339,
                -0.3608799874782562,
                -0.08036330342292786
            ],
            "type" : "VEC3"
        },
        {
            "bufferView" : 1,
            "componentType" : 5126,
            "count" : 298,
            "type" : "VEC3"
        },
        {
            "bufferView" : 2,
            "componentType" : 5126,
            "count" : 298,
            "type" : "VEC4"
        },
        {
            "bufferView" : 3,
            "componentType" : 5126,
            "count" : 298,
            "type" : "VEC2"
        },
        {
            "bufferView" : 4,
            "componentType" : 5123,
            "count" : 480,
            "type" : "SCALAR"
        },
        {
            "bufferView" : 5,
            "componentType" : 5126,
            "count" : 376,
            "max" : [
                0.5138710141181946,
                -0.21171200275421143,
                0.07829129695892334
            ],
            "min" : [
                0.1701049953699112,
                -0.3724380135536194,
                -0.07829129695892334
            ],
            "type" : "VEC3"
        },
        {
            "bufferView" : 6,
            "componentType" : 5126,
            "count" : 376,
            "type" : "VEC3"
        },
        {
            "bufferView" : 7,
            "componentType" : 5126,
            "count" : 376,
            "type" : "VEC4"
        },
        {
            "bufferView" : 8,
            "componentType" : 5126,
            "count" : 376,
            "type" : "VEC2"
        },
        {
            "bufferView" : 9,
            "componentType" : 5123,
            "count" : 588,
            "type" : "SCALAR"
        },
        {
            "bufferView" : 10,
            "componentType" : 5126,
            "count" : 108,
            "max" : [
                0.5053989887237549,
                -0.197503000497818,
                0.03587080165743828
            ],
            "min" : [
                0.4333780109882355,
                -0.3866479992866516,
                -0.03505619987845421
            ],
            "type" : "VEC3"
        },
        {
            "bufferView" : 11,
            "componentType" : 5126,
            "count" : 108,
            "type" : "VEC3"
        },
        {
            "bufferView" : 12,
            "componentType" : 5126,
            "count" : 108,
            "type" : "VEC4"
        },
        {
            "bufferView" : 13,
            "componentType" : 5126,
            "count" : 108,
            "type" : "VEC2"
        },
        {
            "bufferView" : 14,
            "componentType" : 5123,
            "count" : 528,
            "type" : "SCALAR"
        },
        {
            "bufferView" : 15,
            "componentType" : 5126,
            "count" : 80,
            "max" : [
                0.49412399530410767,
                -0.09102810174226761,
                0.02435920014977455
            ],
            "min" : [
                0.4446539878845215,
                -0.197503000497818,
                -0.02435920014977455
            ],
            "type" : "VEC3"
        },
        {
            "bufferView" : 16,
            "componentType" : 5126,
            "count" : 80,
            "type" : "VEC3"
        },
        {
            "bufferView" : 17,
            "componentType" : 5126,
            "count" : 80,
            "type" : "VEC4"
        },
        {
            "bufferView" : 18,
            "componentType" : 5126,
            "count" : 80,
            "type" : "VEC2"
        },
        {
            "bufferView" : 19,
            "componentType" : 5123,
            "count" : 156,
            "type" : "SCALAR"
        },
        {
            "bufferView" : 20,
            "componentType" : 5126,
            "count" : 228,
            "max" : [
                0.8908569812774658,
                -0.21423999965190887,
                0.07638110220432281
            ],
            "min" : [
                0.4295459985733032,
                -0.36991000175476074,
                -0.07692419737577438
            ],
            "type" : "VEC3"
        },
        {
            "bufferView" : 21,
            "componentType" : 5126,
            "count" : 228,
            "type" : "VEC3"
        },
        {
            "bufferView" : 22,
            "componentType" : 5126,
            "count" : 228,
            "type" : "VEC4"
        },
        {
            "bufferView" : 23,
            "componentType" : 5126,
            "count" : 228,
            "type" : "VEC2"
        },
        {
            "bufferView" : 24,
            "componentType" : 5123,
            "count" : 714,
            "type" : "SCALAR"
        },
        {
            "bufferView" : 25,
            "componentType" : 5126,
            "count" : 70,
            "max" : [
                -0.14987200498580933,
                1,
                0.031419601291418076
            ],
            "min" : [
                -0.6317890286445618,
                0.3874100148677826,
                -0.0311747994273901
            ],
            "type" : "VEC3"
        },
        {
            "bufferView" : 26,
            "componentType" : 5126,
            "count" : 70,
            "type" : "VEC3"
        },
        {
            "bufferView" : 27,
            "componentType" : 5126,
            "count" : 70,
            "type" : "VEC4"
        },
        {
            "bufferView" : 28,
            "componentType" : 5126,
            "count" : 70,
            "type" : "VEC2"
        },
        {
            "bufferView" : 29,
            "componentType" : 5123,
            "count" : 270,
            "type" : "SCALAR"
        },
        {
            "bufferView" : 30,
            "componentType" : 5126,
            "count" : 432,
            "max" : [
                -0.1961349993944168,
                0.0328654982149601,
                0.1927260011434555
            ],
            "min" : [
                -0.5851200222969055,
                -0.2626419961452484,
                -0.1927260011434555
            ],
            "type" : "VEC3"
        },
        {
            "bufferView" : 31,
            "componentType" : 5126,
            "count" : 432,
            "type" : "VEC3"
        },
        {
            "bufferView" : 32,
            "componentType" : 5126,
            "count" : 432,
            "type" : "VEC4"
        },
        {
            "bufferView" : 33,
            "componentType" : 5126,
            "count" : 432,
            "type" : "VEC2"
        },
        {
            "bufferView" : 34,
            "componentType" : 5123,
            "count" : 2112,
            "type" : "SCALAR"
        },
        {
            "bufferView" : 35,
            "componentType" : 5126,
            "count" : 653,
            "max" : [
                -0.11813099682331085,
                0.39685800671577454,
                0.27248701453208923
            ],
            "min" : [
                -0.6635299921035767,
                -1,
                -0.27291199564933777
            ],
            "type" : "VEC3"
        },
        {
            "bufferView" : 36,
            "componentType" : 5126,
            "count" : 653,
            "type" : "VEC3"
        },
        {
            "bufferView" : 37,
            "componentType" : 5126,
            "count" : 653,
            "type" : "VEC4"
        },
        {
            "bufferView" : 38,
            "componentType" : 5126,
            "count" : 653,
            "type" : "VEC2"
        },
        {
            "bufferView" : 39,
            "componentType" : 5123,
            "count" : 3354,
            "type" : "SCALAR"
        },
        {
            "bufferView" : 40,
            "componentType" : 5126,
            "count" : 1614,
            "max" : [
                -0.1211870014667511,
                0.07903649657964706,
                0.26643601059913635
            ],
            "min" : [
                -0.6600689888000488,
                -0.32139700651168823,
                -0.26643601059913635
            ],
            "type" : "VEC3"
        },
        {
            "bufferView" : 41,
            "componentType" : 5126,
            "count" : 1614,
            "type" : "VEC3"
        },
        {
            "bufferView" : 42,
            "componentType" : 5126,
            "count" : 1614,
            "type" : "VEC4"
        },
        {
            "bufferView" : 43,
            "componentType" : 5126,
            "count" : 1614,
            "type" : "VEC2"
        },
        {
            "bufferView" : 44,
            "componentType" : 5123,
            "count" : 2880,
            "type" : "SCALAR"
        },
        {
            "bufferView" : 45,
            "componentType" : 5126,
            "count" : 322,
            "max" : [
                -0.16101500391960144,
                0.9926940202713013,
                0.22960300743579865
            ],
            "min" : [
                -0.6206470131874084,
                0.3874100148677826,
                -0.23002800345420837
            ],
            "type" : "VEC3"
        },
        {
            "bufferView" : 46,
            "componentType" : 5126,
            "count" : 322,
            "type" : "VEC3"
        },
        {
            "bufferView" : 47,
            "componentType" : 5126,
            "count" : 322,
            "type" : "VEC4"
        },
        {
            "bufferView" : 48,
            "componentType" : 5126,
            "count" : 322,
            "type" : "VEC2"
        },
        {
            "bufferView" : 49,
            "componentType" : 5123,
            "count" : 1338,
            "type" : "SCALAR"
        },
        {
            "bufferView" : 50,
            "componentType" : 5126,
            "count" : 328,
            "max" : [
                -0.15350699424743652,
                0.07661589980125427,
                0.2353609949350357
            ],
            "min" : [
                -0.6277490258216858,
                -0.31966501474380493,
                -0.2353609949350357
            ],
            "type" : "VEC3"
        },
        {
            "bufferView" : 51,
            "componentType" : 5126,
            "count" : 328,
            "type" : "VEC3"
        },
        {
            "bufferView" : 52,
            "componentType" : 5126,
            "count" : 328,
            "type" : "VEC4"
        },
        {
            "bufferView" : 53,
            "componentType" : 5126,
            "count" : 328,
            "type" : "VEC2"
        },
        {
            "bufferView" : 54,
            "componentType" : 5123,
            "count" : 1200,
            "type" : "SCALAR"
        },
        {
            "bufferView" : 55,
            "componentType" : 5126,
            "count" : 1264,
            "max" : [
                0.10665199905633926,
                -0.1485140025615692,
                0.4972800016403198
            ],
            "min" : [
                -0.8879079818725586,
                -0.4373910129070282,
                -0.4972800016403198
            ],
            "type" : "VEC3"
        },
        {
            "bufferView" : 56,
            "componentType" : 5126,
            "count" : 1264,
            "type" : "VEC3"
        },
        {
            "bufferView" : 57,
            "componentType" : 5126,
            "count" : 1264,
            "type" : "VEC4"
        },
        {
            "bufferView" : 58,
            "componentType" : 5126,
            "count" : 1264,
            "type" : "VEC2"
        },
        {
            "bufferView" : 59,
            "componentType" : 5123,
            "count" : 4944,
            "type" : "SCALAR"
        },
        {
            "bufferView" : 60,
            "componentType" : 5126,
            "count" : 274,
            "max" : [
                0.6073070168495178,
                -0.08682979643344879,
                0.007846550084650517
            ],
            "min" : [
                0.3314700126647949,
                -0.15882599353790283,
                -0.007846550084650517
            ],
            "type" : "VEC3"
        },
        {
            "bufferView" : 61,
            "componentType" : 5126,
            "count" : 274,
            "type" : "VEC3"
        },
        {
            "bufferView" : 62,
            "componentType" : 5126,
            "count" : 274,
            "type" : "VEC4"
        },
        {
            "bufferView" : 63,
            "componentType" : 5126,
            "count" : 274,
            "type" : "VEC2"
        },
        {
            "bufferView" : 64,
            "componentType" : 5123,
            "count" : 420,
            "type" : "SCALAR"
        },
        {
            "bufferView" : 65,
            "componentType" : 5126,
            "count" : 685,
            "max" : [
                0.10960099846124649,
                -0.2541849911212921,
                0.5010049939155579
            ],
            "min" : [
                -0.8908569812774658,
                -0.3294979929924011,
                -0.5010049939155579
            ],
            "type" : "VEC3"
        },
        {
            "bufferView" : 66,
            "componentType" : 5126,
            "count" : 685,
            "type" : "VEC3"
        },
        {
            "bufferView" : 67,
            "componentType" : 5126,
            "count" : 685,
            "type" : "VEC4"
        },
        {
            "bufferView" : 68,
            "componentType" : 5126,
            "count" : 685,
            "type" : "VEC2"
        },
        {
            "bufferView" : 69,
            "componentType" : 5123,
            "count" : 3120,
            "type" : "SCALAR"
        },
        {
            "bufferView" : 70,
            "componentType" : 5126,
            "count" : 350,
            "max" : [
                0.08015459775924683,
                0.10093100368976593,
                0.47049498558044434
            ],
            "min" : [
                -0.861303985118866,
                -0.17036400735378265,
                -0.470876008272171
            ],
            "type" : "VEC3"
        },
        {
            "bufferView" : 71,
            "componentType" : 5126,
            "count" : 350,
            "type" : "VEC3"
        },
        {
            "bufferView" : 72,
            "componentType" : 5126,
            "count" : 350,
            "type" : "VEC4"
        },
        {
            "bufferView" : 73,
            "componentType" : 5126,
            "count" : 350,
            "type" : "VEC2"
        },
        {
            "bufferView" : 74,
            "componentType" : 5123,
            "count" : 1728,
            "type" : "SCALAR"
        },
        {
            "bufferView" : 75,
            "componentType" : 5126,
            "count" : 350,
            "max" : [
                0.07735530287027359,
                -0.4131920039653778,
                0.46971800923347473
            ],
            "min" : [
                -0.8563100099563599,
                -0.6688330173492432,
                -0.46424299478530884
            ],
            "type" : "VEC3"
        },
        {
            "bufferView" : 76,
            "componentType" : 5126,
            "count" : 350,
            "type" : "VEC3"
        },
        {
            "bufferView" : 77,
            "componentType" : 5126,
            "count" : 350,
            "type" : "VEC4"
        },
        {
            "bufferView" : 78,
            "componentType" : 5126,
            "count" : 350,
            "type" : "VEC2"
        },
        {
            "bufferView" : 79,
            "componentType" : 5123,
            "count" : 1728,
            "type" : "SCALAR"
        },
        {
            "bufferView" : 80,
            "componentType" : 5126,
            "count" : 3684,
            "max" : [
                -0.093612901866436,
                0.19145500659942627,
                0.29659199714660645
            ],
            "min" : [
                -0.6876429915428162,
                -0.7253879904747009,
                -0.29659199714660645
            ],
            "type" : "VEC3"
        },
        {
            "bufferView" : 81,
            "componentType" : 5126,
            "count" : 3684,
            "type" : "VEC3"
        },
        {
            "bufferView" : 82,
            "componentType" : 5126,
            "count" : 3684,
            "type" : "VEC4"
        },
        {
            "bufferView" : 83,
            "componentType" : 5126,
            "count" : 3684,
            "type" : "VEC2"
        },
        {
            "bufferView" : 84,
            "componentType" : 5123,
            "count" : 17232,
            "type" : "SCALAR"
        }
    ],
    "bufferViews" : [
        {
            "buffer" : 0,
            "byteLength" : 3576,
            "byteOffset" : 0,
            "target" : 34962
        },
        {
            "buffer" : 0,
            "byteLength" : 3576,
            "byteOffset" : 3576,
            "target" : 34962
        },
        {
            "buffer" : 0,
            "byteLength" : 4768,
            "byteOffset" : 7152,
            "target" : 34962
        },
        {
            "buffer" : 0,
            "byteLength" : 2384,
            "byteOffset" : 11920,
            "target" : 34962
        },
        {
            "buffer" : 0,
            "byteLength" : 960,
            "byteOffset" : 14304,
            "target" : 34963
        },
        {
            "buffer" : 0,
            "byteLength" : 4512,
            "byteOffset" : 15264,
            "target" : 34962
        },
        {
            "buffer" : 0,
            "byteLength" : 4512,
            "byteOffset" : 19776,
            "target" : 34962
        },
        {
            "buffer" : 0,
            "byteLength" : 6016,
            "byteOffset" : 24288,
            "target" : 34962
        },
        {
            "buffer" : 0,
            "byteLength" : 3008,
            "byteOffset" : 30304,
            "target" : 34962
        },
        {
            "buffer" : 0,
            "byteLength" : 1176,
            "byteOffset" : 33312,
            "target" : 34963
        },
        {
            "buffer" : 0,
            "byteLength" : 1296,
            "byteOffset" : 34488,
            "target" : 34962
        },
        {
            "buffer" : 0,
            "byteLength" : 1296,
            "byteOffset" : 35784,
            "target" : 34962
        },
        {
            "buffer" : 0,
            "byteLength" : 1728,
            "byteOffset" : 37080,
            "target" : 34962
        },
        {
            "buffer" : 0,
            "byteLength" : 864,
            "byteOffset" : 38808,
            "target" : 34962
        },
        {
            "buffer" : 0,
            "byteLength" : 1056,
            "byteOffset" : 39672,
            "target" : 34963
        },
        {
            "buffer" : 0,
            "byteLength" : 960,
            "byteOffset" : 40728,
            "target" : 34962
        },
        {
            "buffer" : 0,
            "byteLength" : 960,
            "byteOffset" : 41688,
            "target" : 34962
        },
        {
            "buffer" : 0,
            "byteLength" : 1280,
            "byteOffset" : 42648,
            "target" : 34962
        },
        {
            "buffer" : 0,
            "byteLength" : 640,
            "byteOffset" : 43928,
            "target" : 34962
        },
        {
            "buffer" : 0,
            "byteLength" : 312,
            "byteOffset" : 44568,
            "target" : 34963
        },
        {
            "buffer" : 0,
            "byteLength" : 2736,
            "byteOffset" : 44880,
            "target" : 34962
        },
        {
            "buffer" : 0,
            "byteLength" : 2736,
            "byteOffset" : 47616,
            "target" : 34962
        },
        {
            "buffer" : 0,
            "byteLength" : 3648,
            "byteOffset" : 50352,
            "target" : 34962
        },
        {
            "buffer" : 0,
            "byteLength" : 1824,
            "byteOffset" : 54000,
            "target" : 34962
        },
        {
            "buffer" : 0,
            "byteLength" : 1428,
            "byteOffset" : 55824,
            "target" : 34963
        },
        {
            "buffer" : 0,
            "byteLength" : 840,
            "byteOffset" : 57252,
            "target" : 34962
        },
        {
            "buffer" : 0,
            "byteLength" : 840,
            "byteOffset" : 58092,
            "target" : 34962
        },
        {
            "buffer" : 0,
            "byteLength" : 1120,
            "byteOffset" : 58932,
            "target" : 34962
        },
        {
            "buffer" : 0,
            "byteLength" : 560,
            "byteOffset" : 60052,
            "target" : 34962
        },
        {
            "buffer" : 0,
            "byteLength" : 540,
            "byteOffset" : 60612,
            "target" : 34963
        },
        {
            "buffer" : 0,
            "byteLength" : 5184,
            "byteOffset" : 61152,
            "target" : 34962
        },
        {
            "buffer" : 0,
            "byteLength" : 5184,
            "byteOffset" : 66336,
            "target" : 34962
        },
        {
            "buffer" : 0,
            "byteLength" : 6912,
            "byteOffset" : 71520,
            "target" : 34962
        },
        {
            "buffer" : 0,
            "byteLength" : 3456,
            "byteOffset" : 78432,
            "target" : 34962
        },
        {
            "buffer" : 0,
            "byteLength" : 4224,
            "byteOffset" : 81888,
            "target" : 34963
        },
        {
            "buffer" : 0,
            "byteLength" : 7836,
            "byteOffset" : 86112,
            "target" : 34962
        },
        {
            "buffer" : 0,
            "byteLength" : 7836,
            "byteOffset" : 93948,
            "target" : 34962
        },
        {
            "buffer" : 0,
            "byteLength" : 10448,
            "byteOffset" : 101784,
            "target" : 34962
        },
        {
            "buffer" : 0,
            "byteLength" : 5224,
            "byteOffset" : 112232,
            "target" : 34962
        },
        {
            "buffer" : 0,
            "byteLength" : 6708,
            "byteOffset" : 117456,
            "target" : 34963
        },
        {
            "buffer" : 0,
            "byteLength" : 19368,
            "byteOffset" : 124164,
            "target" : 34962
        },
        {
            "buffer" : 0,
            "byteLength" : 19368,
            "byteOffset" : 143532,
            "target" : 34962
        },
        {
            "buffer" : 0,
            "byteLength" : 25824,
            "byteOffset" : 162900,
            "target" : 34962
        },
        {
            "buffer" : 0,
            "byteLength" : 12912,
            "byteOffset" : 188724,
            "target" : 34962
        },
        {
            "buffer" : 0,
            "byteLength" : 5760,
            "byteOffset" : 201636,
            "target" : 34963
        },
        {
            "buffer" : 0,
            "byteLength" : 3864,
            "byteOffset" : 207396,
            "target" : 34962
        },
        {
            "buffer" : 0,
            "byteLength" : 3864,
            "byteOffset" : 211260,
            "target" : 34962
        },
        {
            "buffer" : 0,
            "byteLength" : 5152,
            "byteOffset" : 215124,
            "target" : 34962
        },
        {
            "buffer" : 0,
            "byteLength" : 2576,
            "byteOffset" : 220276,
            "target" : 34962
        },
        {
            "buffer" : 0,
            "byteLength" : 2676,
            "byteOffset" : 222852,
            "target" : 34963
        },
        {
            "buffer" : 0,
            "byteLength" : 3936,
            "byteOffset" : 225528,
            "target" : 34962
        },
        {
            "buffer" : 0,
            "byteLength" : 3936,
            "byteOffset" : 229464,
            "target" : 34962
        },
        {
            "buffer" : 0,
            "byteLength" : 5248,
            "byteOffset" : 233400,
            "target" : 34962
        },
        {
            "buffer" : 0,
            "byteLength" : 2624,
            "byteOffset" : 238648,
            "target" : 34962
        },
        {
            "buffer" : 0,
            "byteLength" : 2400,
            "byteOffset" : 241272,
            "target" : 34963
        },
        {
            "buffer" : 0,
            "byteLength" : 15168,
            "byteOffset" : 243672,
            "target" : 34962
        },
        {
            "buffer" : 0,
            "byteLength" : 15168,
            "byteOffset" : 258840,
            "target" : 34962
        },
        {
            "buffer" : 0,
            "byteLength" : 20224,
            "byteOffset" : 274008,
            "target" : 34962
        },
        {
            "buffer" : 0,
            "byteLength" : 10112,
            "byteOffset" : 294232,
            "target" : 34962
        },
        {
            "buffer" : 0,
            "byteLength" : 9888,
            "byteOffset" : 304344,
            "target" : 34963
        },
        {
            "buffer" : 0,
            "byteLength" : 3288,
            "byteOffset" : 314232,
            "target" : 34962
        },
        {
            "buffer" : 0,
            "byteLength" : 3288,
            "byteOffset" : 317520,
            "target" : 34962
        },
        {
            "buffer" : 0,
            "byteLength" : 4384,
            "byteOffset" : 320808,
            "target" : 34962
        },
        {
            "buffer" : 0,
            "byteLength" : 2192,
            "byteOffset" : 325192,
            "target" : 34962
        },
        {
            "buffer" : 0,
            "byteLength" : 840,
            "byteOffset" : 327384,
            "target" : 34963
        },
        {
            "buffer" : 0,
            "byteLength" : 8220,
            "byteOffset" : 328224,
            "target" : 34962
        },
        {
            "buffer" : 0,
            "byteLength" : 8220,
            "byteOffset" : 336444,
            "target" : 34962
        },
        {
            "buffer" : 0,
            "byteLength" : 10960,
            "byteOffset" : 344664,
            "target" : 34962
        },
        {
            "buffer" : 0,
            "byteLength" : 5480,
            "byteOffset" : 355624,
            "target" : 34962
        },
        {
            "buffer" : 0,
            "byteLength" : 6240,
            "byteOffset" : 361104,
            "target" : 34963
        },
        {
            "buffer" : 0,
            "byteLength" : 4200,
            "byteOffset" : 367344,
            "target" : 34962
        },
        {
            "buffer" : 0,
            "byteLength" : 4200,
            "byteOffset" : 371544,
            "target" : 34962
        },
        {
            "buffer" : 0,
            "byteLength" : 5600,
            "byteOffset" : 375744,
            "target" : 34962
        },
        {
            "buffer" : 0,
            "byteLength" : 2800,
            "byteOffset" : 381344,
            "target" : 34962
        },
        {
            "buffer" : 0,
            "byteLength" : 3456,
            "byteOffset" : 384144,
            "target" : 34963
        },
        {
            "buffer" : 0,
            "byteLength" : 4200,
            "byteOffset" : 387600,
            "target" : 34962
        },
        {
            "buffer" : 0,
            "byteLength" : 4200,
            "byteOffset" : 391800,
            "target" : 34962
        },
        {
            "buffer" : 0,
            "byteLength" : 5600,
            "byteOffset" : 396000,
            "target" : 34962
        },
        {
            "buffer" : 0,
            "byteLength" : 2800,
            "byteOffset" : 401600,
            "target" : 34962
        },
        {
            "buffer" : 0,
            "byteLength" : 3456,
            "byteOffset" : 404400,
            "target" : 34963
        },
        {
            "buffer" : 0,
            "byteLength" : 44208,
            "byteOffset" : 407856,
            "target" : 34962
        },
        {
            "buffer" : 0,
            "byteLength" : 44208,
            "byteOffset" : 452064,
            "target" : 34962
        },
        {
            "buffer" : 0,
            "byteLength" : 58944,
            "byteOffset" : 496272,
            "target" : 34962
        },
        {
            "buffer" : 0,
            "byteLength" : 29472,
            "byteOffset" : 555216,
            "target" : 34962
        },
        {
            "buffer" : 0,
            "byteLength" : 34464,
            "byteOffset" : 584688,
            "target" : 34963
        }
    ],
    "samplers" : [
        {
            "magFilter" : 9729,
            "minFilter" : 9987
        }
    ],
    "buffers" : [
        {
            "byteLength" : 619152,
            "uri" : "scene_withlight.bin"
        }
    ]
}
